Coordinates
nRows=7
nColumns=38

# SIMM Motion File Header:
name Coordinates
datacolumns 38
datarows 7
otherdata 1
range 0.16561999999999999000 0.17161999999999999000

Units are S.I. units (second, meters, Newtons, ...)
Angles are in degrees.

endheader
time	pelvis_tilt	pelvis_list	pelvis_rotation	pelvis_tx	pelvis_ty	pelvis_tz	hip_flexion_r	hip_adduction_r	hip_rotation_r	knee_angle_r	ankle_angle_r	subtalar_angle_r	mtp_angle_r	hip_flexion_l	hip_adduction_l	hip_rotation_l	knee_angle_l	ankle_angle_l	subtalar_angle_l	mtp_angle_l	lumbar_extension	lumbar_bending	lumbar_rotation	arm_flex_r	arm_add_r	arm_rot_r	elbow_flex_r	pro_sup_r	wrist_flex_r	wrist_dev_r	arm_flex_l	arm_add_l	arm_rot_l	elbow_flex_l	pro_sup_l	wrist_flex_l	wrist_dev_l
      0.16561999999999999000	     -2.65909873958309500000	     -2.03570327110298920000	     -2.54221755814654090000	      1.08518039258366320000	      1.03622410217867690000	     -0.31007996089427409000	     25.54873391149066100000	      6.30551375325370870000	      3.46577140691794310000	    -20.16702051210207700000	    -18.58780458218387800000	      0.00000000000000000000	      0.00000000000000000000	     -2.81552095622348820000	      3.17592366404681850000	      0.79484553399895519000	    -45.02089239672096000000	    -24.37020607803853500000	      0.00000000000000000000	      0.00000000000000000000	     -4.26197465090031890000	      3.64309134545939940000	     -4.61120551853661990000	    -46.60213328470796800000	     -7.48384414481534940000	    -13.52550614759085000000	     63.79699474207943400000	     60.29812011565369500000	      0.00000000000000000000	      0.00000000000000000000	    -27.37086355226462700000	    -18.47758901239077300000	      6.20795123183478560000	    127.23826256950348000000	     85.07352698283469300000	      0.00000000000000000000	      0.00000000000000000000
      0.16661999999999999000	     -2.58111773563844740000	     -2.05625561504734480000	     -2.56996941776064820000	      1.08523441333234820000	      1.03582851507779710000	     -0.31005242200552074000	     25.48019216632250300000	      6.36468101454730830000	      3.55228628661854670000	    -20.38196337892490100000	    -18.57823588805392100000	      0.00000000000000000036	      0.00000000000000000165	     -2.75351099970563370000	      3.17246880375277260000	      0.79663140566009893000	    -45.41517435822073200000	    -24.23921137114018300000	      0.00000000000000000002	     -0.00000000000000000005	     -4.34291148272895280000	      3.68402390629292010000	     -4.55191432854893560000	    -46.55839373427582500000	     -7.51694065441572960000	    -13.49974103001417600000	     63.79352228107515500000	     60.30901689934384500000	      0.00000000000000000008	      0.00000000000000000004	    -27.43910410361497700000	    -18.47308004814209400000	      6.18952387206821090000	    127.13382309937455000000	     85.14370319779772000000	     -0.00000000000000000021	      0.00000000000000000045
      0.16761999999999999000	     -2.50242238444694910000	     -2.07695638012852110000	     -2.59712559339882890000	      1.08528831216645870000	      1.03542447048701010000	     -0.31002567876752479000	     25.41042014903384300000	      6.42406293354262030000	      3.64151664933777930000	    -20.59972918128210000000	    -18.56631057872281700000	      0.00000000000000000309	      0.00000000000000000094	     -2.69142437722908400000	      3.16839575150217100000	      0.79742265677497903000	    -45.80995298959705800000	    -24.10325954518402700000	     -0.00000000000000000108	     -0.00000000000000000091	     -4.42464146952850260000	      3.72505873538754710000	     -4.49324048336488250000	    -46.51312039569194900000	     -7.55084219744674010000	    -13.47291380259872900000	     63.78960742742689400000	     60.31980768820540800000	     -0.00000000000000000015	     -0.00000000000000000042	    -27.50815240811662900000	    -18.46812402639593400000	      6.17051683517826530000	    127.02773769344198000000	     85.21525643289568600000	     -0.00000000000000000074	      0.00000000000000000142
      0.16861999999999999000	     -2.42233730809565540000	     -2.09770698837133680000	     -2.62339710572228530000	      1.08534237451421140000	      1.03501279050954320000	     -0.30999997282725783000	     25.33855813168599300000	      6.48355111452884000000	      3.73332840435088100000	    -20.82059419177337400000	    -18.53956734732018300000	      0.00000000000000000725	     -0.00000000000000000792	     -2.63000549894523370000	      3.16377806480495230000	      0.79743909440362770000	    -46.20499106675434600000	    -23.96258535460853900000	     -0.00000000000000000298	     -0.00000000000000000257	     -4.50781974958985910000	      3.76606216309560260000	     -4.43543084464976010000	    -46.46625157514967700000	     -7.58551447065039760000	    -13.44501945337853900000	     63.78536845529928500000	     60.33040779321142800000	     -0.00000000000000000085	     -0.00000000000000000144	    -27.57801225862611700000	    -18.46279005771183200000	      6.15098174988549040000	    126.92014750244905000000	     85.28797118381518800000	     -0.00000000000000000091	      0.00000000000000000139
      0.16961999999999999000	     -2.33825682231096940000	     -2.11865120735996990000	     -2.64816615184442310000	      1.08539713083736600000	      1.03459728995667530000	     -0.30997598483227579000	     25.26143006925957500000	      6.54296255664810640000	      3.82730527801920850000	    -21.04365944560521500000	    -18.49791503839080100000	      0.00000000000000001288	     -0.00000000000000002267	     -2.57223464796234640000	      3.15850058014888240000	      0.79713780089366648000	    -46.59961710939433000000	    -23.81770156104896700000	     -0.00000000000000000487	     -0.00000000000000000375	     -4.59528264173159420000	      3.80708501230523180000	     -4.37893708846804590000	    -46.41746552840913200000	     -7.62090989874518860000	    -13.41605700325246200000	     63.78101555944563500000	     60.34068141618939100000	     -0.00000000000000000140	     -0.00000000000000000291	    -27.64829235649672500000	    -18.45720834520565700000	      6.13101373628191300000	    126.81119620703706000000	     85.36149640859082400000	     -0.00000000000000000116	      0.00000000000000000193
      0.17061999999999999000	     -2.24978796532997500000	     -2.13978490818712700000	     -2.67125578874298150000	      1.08545265108342660000	      1.03417856876164400000	     -0.30995388702863585000	     25.17853292966559000000	      6.60223137972599620000	      3.92324158695854800000	    -21.26876246483417900000	    -18.43949330345972000000	      0.00000000000000001842	     -0.00000000000000004680	     -2.51853450491830570000	      3.15253360514422760000	      0.79661088134851299000	    -46.99370462662489700000	    -23.66884720715989600000	     -0.00000000000000000686	     -0.00000000000000000397	     -4.68742213076960820000	      3.84811100798934370000	     -4.32389925040788100000	    -46.36672306137737100000	     -7.65701838966937310000	    -13.38602327134536700000	     63.77663888765739800000	     60.35051811353143600000	     -0.00000000000000000091	     -0.00000000000000000502	    -27.71895799806222600000	    -18.45140806049020600000	      6.11069209851890170000	    126.70095947243463000000	     85.43561448046874300000	     -0.00000000000000000092	      0.00000000000000000062
      0.17161999999999999000	     -2.15804921132533510000	     -2.16102759454827620000	     -2.69286753231526800000	      1.08550866011823530000	      1.03375507384781780000	     -0.30993342813860175000	     25.09120381234584600000	      6.66139980816808120000	      4.02109169252284190000	    -21.49613238509605400000	    -18.36422000956357800000	      0.00000000000000002054	     -0.00000000000000006440	     -2.46759647196259910000	      3.14587910349412160000	      0.79562405861308994000	    -47.38749201358074700000	    -23.51608860081206100000	     -0.00000000000000000890	     -0.00000000000000000348	     -4.78298247406630410000	      3.88910437570649090000	     -4.27016956996527240000	    -46.31417385118288600000	     -7.69386059774003690000	    -13.35491381352584700000	     63.77223798989233200000	     60.35982245402414000000	     -0.00000000000000000109	     -0.00000000000000000729	    -27.79018769475695500000	    -18.44534096382240000000	      6.09008926785745070000	    126.58944366776196000000	     85.51020475516124000000	     -0.00000000000000000055	     -0.00000000000000000205
